<svg id="Layer_1" data-name="Layer 1" xmlns="http://www.w3.org/2000/svg" viewBox="0 0 428.14 496.51"><defs><style>.cls-1{fill:#fff;}</style></defs><title>code-monkey-logo</title><path class="cls-1" d="M375.92,126.72a56.63,56.63,0,0,0-20.78,3.92,136.32,136.32,0,0,0-271.6-.46A56.78,56.78,0,1,0,64,240.27a57.35,57.35,0,0,0,6.58-.38,150.37,150.37,0,1,0,299.29,20.81,151.5,151.5,0,0,0-1.45-20.93,56.78,56.78,0,1,0,7.53-113.05Zm-312,98A41.18,41.18,0,1,1,83.08,147,136.38,136.38,0,0,0,86,171c-9.79-6.91-15.62-4.45-18-.27-2.5,4.37,1.25,10,5,10.61s6.24,2.5,8.73,4.37a14.71,14.71,0,0,1,4.1,6.06,149.38,149.38,0,0,0-12.08,31.75A41.1,41.1,0,0,1,64,224.68ZM219.48,375.82a115.12,115.12,0,0,1-104.41-66.6H323.89A115.12,115.12,0,0,1,219.48,375.82ZM332,284.88H106.92A115.23,115.23,0,0,1,141.5,176a56.78,56.78,0,1,1,77.82-76.12,56.78,56.78,0,1,1,78,76,115.23,115.23,0,0,1,34.7,109Zm43.88-60.21a41.08,41.08,0,0,1-10.8-1.45,149.38,149.38,0,0,0-11.47-30.43,15.62,15.62,0,0,1,4.49-7.11c2.5-1.87,5-3.74,8.73-4.37s7.49-6.24,5-10.61-8.73-6.86-19.34,1.25l-.15.11a136.3,136.3,0,0,0,3.16-24.35,41.18,41.18,0,1,1,20.38,77Z" transform="translate(-7.05 -6)"/><circle class="cls-1" cx="175.45" cy="155.66" r="19.65"/><circle class="cls-1" cx="250.32" cy="155.66" r="19.65"/><rect class="cls-1" x="187.96" y="229.19" width="21.02" height="32.27" rx="10.51" ry="10.51" transform="translate(-122.39 206.19) rotate(-45)"/><rect class="cls-1" x="227.07" y="229.19" width="21.02" height="32.27" rx="10.51" ry="10.51" transform="translate(225.06 580.79) rotate(-135)"/><path class="cls-1" d="M64.23,481.89q0,4.84-4.79,4.83H45.92q-4.79,0-4.79-4.83v-32q0-4.83,4.79-4.83H59.44q4.79,0,4.79,4.83v8.3h-5.6V450.1H46.82v31.62H58.63v-9.28h5.6Z" transform="translate(-7.05 -6)"/><path class="cls-1" d="M97.39,481.89q0,4.84-4.83,4.83H78.27q-4.79,0-4.79-4.83v-32q0-4.83,4.79-4.83H92.56q4.83,0,4.83,4.83Zm-5.69-.17V450.1H79.16v31.62Z" transform="translate(-7.05 -6)"/><path class="cls-1" d="M130.33,486.72h-5.65v-1.16Q115.53,487,114.55,487a7.52,7.52,0,0,1-5.86-2.46,8.81,8.81,0,0,1-2.22-6.14V454a8.71,8.71,0,0,1,2.52-6.4,8.55,8.55,0,0,1,6.33-2.54h9.37V419.76h5.65Zm-5.65-5.18V450.1h-7.87q-4.71,0-4.71,4.83v22.25q0,4.79,4.71,4.79Q117.93,482,124.69,481.55Z" transform="translate(-7.05 -6)"/><path class="cls-1" d="M163,481.89q0,4.84-4.79,4.83H144.5q-4.79,0-4.79-4.83v-32q0-4.83,4.79-4.83h13.69q4.79,0,4.79,4.83v15l-1.93,2H145.22V482h12.24v-7.62H163Zm-5.52-19.51V449.84H145.22v12.54Z" transform="translate(-7.05 -6)"/><path class="cls-1" d="M189.46,463.83H171.84v-5.3h17.63Z" transform="translate(-7.05 -6)"/><path class="cls-1" d="M240.08,486.72h-5.69V450.18l-12.41.34v36.2h-5.65V450.18l-12.41.34v36.2h-5.69V445.09h5.69v1.16q3.34-.43,6.67-.9a55.6,55.6,0,0,1,6.72-.51,4.59,4.59,0,0,1,3.85,1.58q3.59-.47,7.14-1a60.32,60.32,0,0,1,7.06-.6q4.71,0,4.71,4.66Z" transform="translate(-7.05 -6)"/><path class="cls-1" d="M273.24,481.89q0,4.84-4.83,4.83H254.11q-4.79,0-4.79-4.83v-32q0-4.83,4.79-4.83H268.4q4.83,0,4.83,4.83Zm-5.69-.17V450.1H255v31.62Z" transform="translate(-7.05 -6)"/><path class="cls-1" d="M306.44,486.72h-5.69V450.18l-12.54.34v36.2h-5.69V445.09h5.69v1.16q3.34-.43,6.72-.9a56.63,56.63,0,0,1,6.76-.51q4.75,0,4.75,4.66Z" transform="translate(-7.05 -6)"/><path class="cls-1" d="M339,486.72h-6.2L321.33,465.5v21.22h-5.69v-67h5.69v42.53l10.7-17.2h6.12v.17L326,463.66Z" transform="translate(-7.05 -6)"/><path class="cls-1" d="M368.27,481.89q0,4.84-4.79,4.83H349.78q-4.79,0-4.79-4.83v-32q0-4.83,4.79-4.83h13.69q4.79,0,4.79,4.83v15l-1.92,2H350.51V482h12.24v-7.62h5.52Zm-5.52-19.51V449.84H350.51v12.54Z" transform="translate(-7.05 -6)"/><path class="cls-1" d="M401.13,445.09l-10,41.29L387,502.51h-5.61l4.19-16.13-10.27-41.29h5.86l7.1,32.77,7.19-32.77Z" transform="translate(-7.05 -6)"/><path class="cls-1" d="M32.44,492.7h-.3L7.05,467v-4.92l25.39-25.91v9.5L13.9,464.47,32.44,483.2Z" transform="translate(-7.05 -6)"/><path class="cls-1" d="M409.81,483.2l18.54-18.73-18.54-18.8v-9.5l25.39,25.91V467l-25.09,25.7h-.3Z" transform="translate(-7.05 -6)"/></svg>